<svg width="106" height="31" viewBox="0 0 106 31" fill="none" xmlns="http://www.w3.org/2000/svg">
<mask id="mask0_41_18" style="mask-type:luminance" maskUnits="userSpaceOnUse" x="0" y="0" width="106" height="31">
<path d="M0 30.6582H106V-8.91147e-05H0V30.6582Z" fill="white"/>
</mask>
<g mask="url(#mask0_41_18)">
<path d="M0 15.3196C0 6.90844 6.9095 -0.00106646 15.3206 -0.00106646C20.1242 -0.00106646 24.3196 2.31395 27.1087 5.78857L21.3704 10.0306C19.8808 8.29058 18.2928 6.80717 15.2797 6.80717C10.1858 6.80717 7.12039 10.585 7.12039 15.3196C7.12039 20.2376 10.3665 23.6671 15.1952 23.6671C18.0225 23.6671 19.8808 22.35 21.3704 20.6083L27.1087 24.8506C24.3196 28.3252 20.0328 30.6572 15.2295 30.6572C6.8184 30.6572 0 23.7322 0 15.3196Z" fill="#0252A7"/>
<path d="M71.216 7.3611L69.973 11.2766L63.3222 29.5596H55.6504L66.6953 0.914893H75.734L86.7824 29.5596H79.116L72.4571 11.2748L71.216 7.3611Z" fill="#0252A7"/>
<path d="M98.4189 7.08555V29.5615H91.2713V7.08555H83.5078V0.919242H105.999V7.08555H98.4189Z" fill="#0252A7"/>
<path d="M30.7539 0.919627H53.281V7.08594H30.7539V0.919627Z" fill="#F77A1F"/>
<path d="M30.7539 23.3984H53.281V29.5645H30.7539V23.3984Z" fill="#F77A1F"/>
<path d="M30.7695 12.156H53.2924V18.3232H30.7695V12.156Z" fill="#F77A1F"/>
</g>
</svg>
